<?xml version="1.0" encoding="iso-8859-1"?>
<!-- Generator: Adobe Illustrator 16.0.0, SVG Export Plug-In . SVG Version: 6.00 Build 0)  -->
<!DOCTYPE svg PUBLIC "-//W3C//DTD SVG 1.1//EN" "http://www.w3.org/Graphics/SVG/1.1/DTD/svg11.dtd">
<svg version="1.1" id="Layer_1" xmlns="http://www.w3.org/2000/svg" xmlns:xlink="http://www.w3.org/1999/xlink" x="0px" y="0px"
	 width="64px" height="64px" viewBox="0 0 64 64" style="enable-background:new 0 0 64 64;" xml:space="preserve">
<g id="Base_16_">
	<g>
		<path style="fill:#CCCCCC;" d="M60,0H4C1.791,0,0,1.791,0,4v56c0,2.209,1.791,4,4,4h56c2.209,0,4-1.791,4-4V4
			C64,1.791,62.209,0,60,0z"/>
	</g>
</g>
<g id="Button">
	<g>
		<path style="fill-rule:evenodd;clip-rule:evenodd;fill:#FFFFFF;" d="M28,6H8C6.896,6,6,6.896,6,8v20c0,1.104,0.896,2,2,2h20
			c1.104,0,2-0.896,2-2V8C30,6.896,29.104,6,28,6z M56,6H36c-1.104,0-2,0.896-2,2v20c0,1.104,0.896,2,2,2h20c1.104,0,2-0.896,2-2V8
			C58,6.896,57.104,6,56,6z M28,34H8c-1.104,0-2,0.896-2,2v20c0,1.104,0.896,2,2,2h20c1.104,0,2-0.896,2-2V36
			C30,34.896,29.104,34,28,34z"/>
	</g>
</g>
<g id="_x2B__x5F_x">
	<g>
		<path style="fill-rule:evenodd;clip-rule:evenodd;fill:#999999;" d="M14,20h2v2c0,1.104,0.896,2,2,2s2-0.896,2-2v-2h2
			c1.104,0,2-0.896,2-2s-0.896-2-2-2h-2v-2c0-1.104-0.896-2-2-2s-2,0.896-2,2v2h-2c-1.104,0-2,0.896-2,2S12.896,20,14,20z
			 M23.408,40.592c-0.812-0.812-2.128-0.812-2.939,0L18,43.062l-2.47-2.47c-0.812-0.812-2.127-0.812-2.938,0s-0.812,2.127,0,2.938
			l2.47,2.47l-2.47,2.47c-0.812,0.811-0.812,2.126,0,2.938c0.812,0.811,2.127,0.811,2.938,0l2.47-2.47l2.469,2.47
			c0.812,0.811,2.128,0.811,2.939,0c0.811-0.813,0.811-2.128,0-2.938L20.938,46l2.47-2.47
			C24.219,42.719,24.219,41.403,23.408,40.592z M50,16h-8c-1.104,0-2,0.896-2,2s0.896,2,2,2h8c1.104,0,2-0.896,2-2S51.104,16,50,16z
			"/>
	</g>
</g>
<g id="Button_1_">
	<g>
		<path style="fill:#FF8833;" d="M56,34H36c-1.104,0-2,0.896-2,2v20c0,1.104,0.896,2,2,2h20c1.104,0,2-0.896,2-2V36
			C58,34.896,57.104,34,56,34z"/>
	</g>
</g>
<g id="_x3D_">
	<g>
		<path style="fill-rule:evenodd;clip-rule:evenodd;fill:#FFFFFF;" d="M42,44h8c1.104,0,2-0.896,2-2s-0.896-2-2-2h-8
			c-1.104,0-2,0.896-2,2S40.896,44,42,44z M50,48h-8c-1.104,0-2,0.896-2,2s0.896,2,2,2h8c1.104,0,2-0.896,2-2S51.104,48,50,48z"/>
	</g>
</g>
<g>
</g>
<g>
</g>
<g>
</g>
<g>
</g>
<g>
</g>
<g>
</g>
<g>
</g>
<g>
</g>
<g>
</g>
<g>
</g>
<g>
</g>
<g>
</g>
<g>
</g>
<g>
</g>
<g>
</g>
</svg>
