<?xml version="1.0" encoding="iso-8859-1"?>
<!-- Generator: Adobe Illustrator 16.0.0, SVG Export Plug-In . SVG Version: 6.00 Build 0)  -->
<!DOCTYPE svg PUBLIC "-//W3C//DTD SVG 1.1//EN" "http://www.w3.org/Graphics/SVG/1.1/DTD/svg11.dtd">
<svg version="1.1" id="Layer_1" xmlns="http://www.w3.org/2000/svg" xmlns:xlink="http://www.w3.org/1999/xlink" x="0px" y="0px"
	 width="63.999px" height="56px" viewBox="0 0 63.999 56" style="enable-background:new 0 0 63.999 56;" xml:space="preserve">
<g id="Cannon_3_">
	<g>
		<path style="fill-rule:evenodd;clip-rule:evenodd;fill:#666666;" d="M57.989,0c-1.736,1.004-1.51,3.188-2.469,3.743L4.202,31.088
			c-0.91,0.526-1.299,1.753-1.348,3.096L1.735,34.83c-0.959,0.555-1.287,1.78-0.734,2.739c-0.957,0.555-1.285,1.781-0.732,2.74
			s1.777,1.289,2.734,0.734c0.555,0.959,1.779,1.288,2.738,0.734l1.121-0.646c1.186,0.628,2.441,0.904,3.35,0.379l49.316-30.819
			c0.959-0.555,2.736,0.734,4.471-0.27L57.989,0z"/>
	</g>
</g>
<g id="Trail_2_">
	<g>
		<path style="fill-rule:evenodd;clip-rule:evenodd;fill:#D9A16A;" d="M34.009,32.004H22.011h-5.998h-2L5.015,50.001H2.017
			c-1.105,0-2,0.895-2,2V54c0,1.104,0.895,2,2,2h5.998h2l7.998-15.997h15.996c1.105,0,2-0.896,2-2v-3.999
			C36.009,32.898,35.114,32.004,34.009,32.004z"/>
	</g>
</g>
<g id="Wheel_2_">
	<g>
		<path style="fill-rule:evenodd;clip-rule:evenodd;fill:#D9A16A;" d="M32.009,16.007c-11.045,0-19.996,8.951-19.996,19.996
			C12.013,47.047,20.964,56,32.009,56c11.043,0,19.996-8.953,19.996-19.997C52.005,24.958,43.052,16.007,32.009,16.007z
			 M47.866,34.004H36.835l7.773-7.774C46.323,28.439,47.501,31.087,47.866,34.004z M34.009,20.145
			c2.916,0.365,5.564,1.542,7.771,3.257l-7.771,7.772V20.145z M30.009,31.176l-7.773-7.773c2.209-1.716,4.855-2.893,7.773-3.258
			V31.176z M19.409,26.229l7.773,7.774H16.151C16.517,31.087,17.692,28.439,19.409,26.229z M16.151,38.003h11.029l-7.773,7.772
			C17.692,43.566,16.517,40.919,16.151,38.003z M30.009,51.862c-2.918-0.365-5.566-1.542-7.773-3.259l7.773-7.774V51.862z
			 M34.009,40.83l7.773,7.774c-2.209,1.716-4.855,2.894-7.773,3.258V40.83z M44.608,45.775l-7.771-7.772h11.029
			C47.501,40.919,46.323,43.566,44.608,45.775z"/>
	</g>
</g>
<g id="Hug_2_">
	<g>
		<circle style="fill:#666666;" cx="32.009" cy="36.003" r="4"/>
	</g>
</g>
<g>
</g>
<g>
</g>
<g>
</g>
<g>
</g>
<g>
</g>
<g>
</g>
<g>
</g>
<g>
</g>
<g>
</g>
<g>
</g>
<g>
</g>
<g>
</g>
<g>
</g>
<g>
</g>
<g>
</g>
</svg>
