<?xml version="1.0" encoding="iso-8859-1"?>
<!-- Generator: Adobe Illustrator 16.0.0, SVG Export Plug-In . SVG Version: 6.00 Build 0)  -->
<!DOCTYPE svg PUBLIC "-//W3C//DTD SVG 1.1//EN" "http://www.w3.org/Graphics/SVG/1.1/DTD/svg11.dtd">
<svg version="1.1" id="Layer_1" xmlns="http://www.w3.org/2000/svg" xmlns:xlink="http://www.w3.org/1999/xlink" x="0px" y="0px"
	 width="52.003px" height="64px" viewBox="0 0 52.003 64" style="enable-background:new 0 0 52.003 64;" xml:space="preserve">
<g id="Foot">
	<g>
		<path style="fill-rule:evenodd;clip-rule:evenodd;fill:#999999;" d="M42,60H32v-6c0-1.104-0.896-2-2-2s-2,0.896-2,2v6H18
			c-1.104,0-2,0.896-2,2s0.896,2,2,2h24c1.104,0,2-0.896,2-2S43.104,60,42,60z"/>
	</g>
</g>
<g id="Arm_1_">
	<g>
		<path style="fill-rule:evenodd;clip-rule:evenodd;fill:#999999;" d="M41,45.053c-0.784,0.453-1.588,0.834-2.401,1.181l2.013,3.486
			C37.369,51.173,33.784,52,30,52C15.641,52,4,40.359,4,26C4,17.336,8.254,9.684,14.77,4.959l2.007,3.477
			C17.483,7.905,18.216,7.4,19,6.947c0.232-0.134,0.473-0.237,0.708-0.362L15.906,0h-0.77C6.107,5.166,0,14.851,0,26
			c0,16.568,13.432,30,30,30c5.752,0,11.092-1.667,15.652-4.478l-3.984-6.901C41.442,44.762,41.232,44.919,41,45.053z"/>
	</g>
</g>
<g id="Water">
	<g>
		<circle style="fill:#48A0DC;" cx="30" cy="26" r="22"/>
	</g>
</g>
<g id="Land">
	<g>
		<path style="fill:#FFCC66;" d="M20.705,18.461c0.332-0.229,0.649-0.569,0.815-0.932c0.591-1.294,1.88-1.796,2.866-2.64
			c0.113-0.097,0.307-0.107,0.467-0.138c0.346-0.066,0.83-0.003,1.006-0.209c0.179-0.209,0.055-0.678,0.065-1.032
			c0.021-0.738,0.317-1.042,1.036-1.055c0.312-0.006,0.624-0.005,0.935,0.006c0.672,0.024,0.81,0.215,0.7,0.874
			c-0.021,0.127,0.055,0.327,0.154,0.4c0.084,0.062,0.267-0.014,0.406-0.028c-0.027-0.149-0.053-0.298-0.08-0.446
			c-0.059-0.325-0.174-0.652-0.163-0.975c0.013-0.375-0.046-0.657-0.329-0.935c-0.237-0.231-0.43-0.545-0.543-0.857
			c-0.11-0.303-0.266-0.426-0.561-0.383c-0.516,0.074-0.849-0.146-1.026-0.619c-0.137-0.367-0.414-0.461-0.777-0.483
			c-0.631-0.038-0.895,0.453-0.983,0.866c-0.221,1.041-1.074,1.593-1.636,2.361c-0.355,0.486-1.029,0.342-1.131-0.242
			c-0.087-0.501-0.341-0.725-0.769-0.881c-0.273-0.1-0.53-0.249-0.786-0.393c-0.699-0.393-0.84-1.168-0.242-1.686
			c0.878-0.76,1.852-1.296,3.104-1.051c0.239,0.046,0.696-0.126,0.774-0.313c0.31-0.746,1.011-1.048,1.552-1.52
			c0.402-0.352,1.098-0.26,1.474,0.08c0.458,0.412,0.355,0.811,0.041,1.259C26.971,7.637,26.918,7.988,27,8.058
			c0.19,0.161,0.569,0.357,0.707,0.271c0.485-0.3,0.906-0.706,1.333-1.093c0.04-0.036-0.042-0.226-0.089-0.334
			c-0.308-0.7-0.892-1.012-1.599-1.209c-0.789-0.22-0.948-0.855-0.272-1.31c0.134-0.091,0.277-0.169,0.422-0.243
			c-0.759,0.087-1.516,0.21-2.269,0.378c-0.667,0.144-0.881,0.632-0.603,1.238c0.164,0.357,0.221,0.733-0.14,0.994
			c-0.364,0.264-0.728,0.087-0.98-0.191c-0.167-0.185-0.209-0.48-0.315-0.724c-0.076-0.177-0.165-0.348-0.248-0.521
			c-0.213,0.114-0.581,0.194-0.613,0.347c-0.171,0.804-0.868,0.931-1.437,1.224c-0.096,0.05-0.306,0.058-0.346,0.001
			c-0.069-0.098-0.087-0.271-0.055-0.395c0.031-0.124,0.065-0.248,0.1-0.375C20.06,6.371,19.525,6.645,19,6.947
			c-5.13,2.962-8.61,7.68-10.132,12.954c0.543,0.878,1.284,1.633,1.883,2.48c0.251,0.354,0.354,0.815,0.529,1.226
			c0.097,0.229,0.146,0.515,0.314,0.668c0.609,0.553,1.333,0.878,2.166,0.971c0.315,0.034,0.649,0.128,0.919,0.289
			c0.857,0.508,1.688,1.06,2.521,1.589c0.316-0.692,0.251-0.864-0.474-1.195c-0.482-0.22-0.658-0.611-0.561-1.129
			c0.036-0.188,0.072-0.377,0.138-0.724c-0.277,0.229-0.423,0.354-0.575,0.473c-0.943,0.746-1.949,0.438-2.345-0.691
			c-0.378-1.077,0.021-1.994,0.62-2.815c0.939-1.288,2.454-0.881,3.74-1.131c0.173-0.033,0.389,0.089,0.568,0.174
			c0.208,0.099,0.397,0.237,0.667,0.403C19.082,19.354,19.954,18.978,20.705,18.461z M18.62,13.876
			c0.015-0.151,0.354-0.382,0.544-0.382c0.348,0.002,0.786,0.095,0.778,0.561c-0.002,0.157-0.339,0.309-0.523,0.464
			C18.992,14.363,18.573,14.35,18.62,13.876z M37.934,11.888c0.341,0.085,0.8-0.167,0.892,0.405
			c0.102,0.645,0.417,1.178,0.819,1.702c0.563,0.734,0.205,1.476-0.708,1.642c-0.144,0.026-0.289,0.051-0.435,0.062
			c-0.764,0.057-0.794,0.102-0.892,0.867c-0.067,0.524,0.225,0.803,0.595,1.083c0.341,0.259,0.616,0.057,0.847-0.109
			c0.238-0.172,0.436-0.43,0.585-0.688c0.422-0.729,0.907-1.436,1.725-1.686c0.706-0.216,1.492-0.51,2.173,0.032
			c0.301-0.169,0.663-0.387,0.918-0.299c0.565,0.197,1.036,0.56,1.335,1.151c0.189,0.372,0.584,0.64,0.829,0.894
			c0.348-0.322,0.559-0.674,0.839-0.742c0.499-0.124,1.043-0.115,1.563-0.079c0.186,0.013,0.445,0.238,0.505,0.422
			c0.058,0.175-0.085,0.427-0.17,0.633c-0.037,0.089-0.15,0.146-0.309,0.288c0.455,0.069,0.794,0.131,1.136,0.169
			c0.063,0.008,0.116,0.018,0.172,0.026c-0.371-0.902-0.8-1.792-1.301-2.66c-0.872-1.51-1.9-2.873-3.045-4.09
			c-0.245,0.322-0.61,0.571-1.062,0.666c-0.551,0.116-1.006,0.003-1.484-0.18c-0.342-0.13-0.571-0.039-0.879,0.194
			c-0.497,0.377-1.095,0.628-1.67,0.887c-0.132,0.061-0.396-0.004-0.512-0.107c-0.387-0.349-0.742-0.733-1.092-1.12
			c-0.126-0.14-0.204-0.322-0.323-0.518C38.61,11.146,38.284,11.503,37.934,11.888z M42.465,9.911
			c0.405,0.061,0.694,0.161,0.851,0.558c0.159,0.406,0.409,0.309,0.622,0.062c0.3-0.347,0.45-0.751,0.417-1.202
			c-0.496-0.427-1.008-0.828-1.536-1.206c-0.234,0.214-0.482,0.412-0.728,0.622c-0.18,0.153-0.41,0.528-0.346,0.631
			C41.897,9.617,42.195,9.871,42.465,9.911z M51.946,24.417c-0.018-0.03-0.036-0.061-0.054-0.091
			c-0.34-0.578-0.574-1.218-0.847-1.835c-0.08-0.183-0.18-0.376-0.184-0.567c-0.005-0.199,0.067-0.553,0.155-0.569
			c0.154-0.028,0.337-0.003,0.5,0.056c-0.124-0.578-0.273-1.154-0.445-1.727c-0.164,0.225-0.408,0.382-0.737,0.455
			c-0.933,0.207-1.857,0.142-2.75-0.207c-0.42-0.163-0.801-0.208-1.184,0.098c-0.419,0.336-0.885,0.301-1.345,0.081
			c-0.214-0.103-0.406-0.279-0.629-0.333c-0.753-0.18-1.229-0.583-1.368-1.384c-0.024-0.14-0.337-0.343-0.498-0.327
			c-1.106,0.109-2.206,0.367-3.31,0.386c-1.146,0.019-1.608,0.798-1.99,1.593c-0.266,0.555-0.592,0.98-1.038,1.371
			c-0.841,0.738-1.283,1.653-1.188,2.811c0.035,0.428-0.076,0.866-0.089,1.301c-0.012,0.376-0.118,0.844,0.059,1.114
			c0.575,0.88,1.251,1.694,1.91,2.518c0.103,0.128,0.32,0.249,0.473,0.236c0.812-0.066,1.644-0.088,2.424-0.295
			c0.803-0.214,1.524-0.407,2.188,0.277c0.095,0.098,0.252,0.145,0.389,0.193c1.002,0.354,1.09,0.444,1.054,1.497
			c-0.022,0.659,0.121,1.207,0.464,1.804c0.732,1.27,1.198,2.617,0.497,4.122c-0.182,0.39-0.188,1.01-0.002,1.393
			c0.457,0.945,0.608,1.939,0.817,2.941c0.032,0.151,0.075,0.3,0.118,0.448C50.035,37.217,52.403,30.815,51.946,24.417z
			 M36.706,6.987c0.627-0.239,1.26-0.462,1.884-0.708c0.209-0.082,0.435-0.153,0.642-0.244c-2.734-1.262-5.706-1.959-8.724-2.032
			c0.244,0.06,0.499,0.077,0.766,0.076c1.203-0.001,1.571,0.524,1.369,1.71c-0.128,0.751-0.14,1.529-0.142,2.295
			c-0.001,0.457,0.281,0.787,0.735,0.925c0.418,0.127,0.627-0.16,0.858-0.435c0.549-0.653,1.148-1.235,2.059-1.354
			C36.344,7.195,36.518,7.058,36.706,6.987z M31.728,32.982c-0.851-0.163-1.567-0.584-2.348-0.875
			c-0.697-0.261-1.202-0.672-1.377-1.435c-0.137-0.593-0.557-0.882-1.122-1.085c-0.537-0.192-1.064-0.472-1.522-0.812
			c-0.621-0.46-1.168-0.992-2.048-0.833c-0.222,0.041-0.542-0.059-0.711-0.21c-0.557-0.501-1.167-0.549-1.685-0.093
			c-0.486,0.43-1.465,0.637-0.998,1.7c0.102,0.23-0.043,0.609-0.157,0.886c-0.139,0.334-0.354,0.641-0.557,0.945
			c-0.637,0.957-0.523,1.956-0.086,2.92c0.361,0.799,0.814,1.559,1.275,2.305c0.192,0.312,0.465,0.622,0.777,0.8
			c1.095,0.622,1.682,1.487,1.559,2.783c-0.035,0.363-0.031,0.735,0,1.101c0.076,0.889,0.2,1.773,0.26,2.663
			c0.029,0.432-0.04,0.87-0.072,1.306c-0.011,0.144-0.083,0.29-0.064,0.427c0.065,0.468,0.136,0.936,0.221,1.4
			c0.788,0.261,1.589,0.479,2.401,0.65c0.208-0.765,0.642-1.497,1.217-1.937c0.168-0.13,0.31-0.366,0.351-0.576
			c0.093-0.475,0.331-0.789,0.76-1.003c0.188-0.094,0.396-0.245,0.483-0.424c0.329-0.685,0.743-1.366,0.879-2.095
			c0.171-0.922,0.717-1.369,1.484-1.658c0.91-0.344,1.265-0.703,1.214-1.646c-0.065-1.189,0.281-2.187,1.035-3.089
			c0.272-0.326,0.473-0.794,0.132-1.157C32.659,33.55,32.208,33.074,31.728,32.982z"/>
	</g>
</g>
<g>
</g>
<g>
</g>
<g>
</g>
<g>
</g>
<g>
</g>
<g>
</g>
<g>
</g>
<g>
</g>
<g>
</g>
<g>
</g>
<g>
</g>
<g>
</g>
<g>
</g>
<g>
</g>
<g>
</g>
</svg>
