<?xml version="1.0" encoding="iso-8859-1"?>
<!-- Generator: Adobe Illustrator 16.0.0, SVG Export Plug-In . SVG Version: 6.00 Build 0)  -->
<!DOCTYPE svg PUBLIC "-//W3C//DTD SVG 1.1//EN" "http://www.w3.org/Graphics/SVG/1.1/DTD/svg11.dtd">
<svg version="1.1" id="Layer_1" xmlns="http://www.w3.org/2000/svg" xmlns:xlink="http://www.w3.org/1999/xlink" x="0px" y="0px"
	 width="64px" height="64px" viewBox="0 0 64 64" style="enable-background:new 0 0 64 64;" xml:space="preserve">
<g id="Body_48_">
	<g>
		<path style="fill-rule:evenodd;clip-rule:evenodd;fill:#ED7161;" d="M34.4,39.999c-1.571-0.516-0.846-2.85-0.525-3.693
			C33.952,36.136,34,36.018,34,36c0-4.419-3.582-8.001-8-8.001c-3.376,0-6.257,2.094-7.432,5.052C16.805,36.163,14,36,14,36
			C6.268,36,0,42.268,0,50c0,5.981,8.018,14,14,14c7.731,0,14-6.269,14-14c0-0.068-0.01-0.135-0.01-0.203L28,49.8
			c0-6.571,5.463-5.719,6.4-5.801c1.104,0,2-0.895,2-1.999C36.4,40.895,35.505,39.999,34.4,39.999z"/>
	</g>
</g>
<g id="Body_Plate">
	<g>
		<path style="fill-rule:evenodd;clip-rule:evenodd;fill:#9D5F57;" d="M27.988,49.796L28,49.8c0-6.571,5.463-5.719,6.4-5.801
			c1.104,0,2-0.895,2-1.999c0-1.105-0.896-2.001-2-2.001c-1.57-0.516-0.847-2.848-0.525-3.692C33.953,36.134,34,36.018,34,36
			c0-1.193-0.269-2.321-0.736-3.338C29.666,35.901,14,50,14,50s7.376,7.85,12.121,6.985C27.31,54.928,28,52.547,28,50
			C28,49.931,27.989,49.865,27.988,49.796z"/>
	</g>
</g>
<g id="Pickup">
	<g>
		<path style="fill:#FFFFFF;" d="M25.463,40.971l-2.491-2.492c-0.688-0.688-1.803-0.688-2.491,0c-0.688,0.688-0.688,1.804,0,2.492
			l2.491,2.49c0.688,0.688,1.804,0.688,2.491,0C26.151,42.773,26.151,41.658,25.463,40.971z"/>
	</g>
</g>
<g id="Pickup_1_">
	<g>
		<path style="fill:#FFFFFF;" d="M17.463,48.971l-2.49-2.491c-0.688-0.688-1.804-0.688-2.491,0c-0.688,0.688-0.688,1.803,0,2.491
			l2.491,2.49c0.688,0.688,1.803,0.688,2.49,0C18.151,50.773,18.151,49.658,17.463,48.971z"/>
	</g>
</g>
<g id="Controlls">
	<g>
		<path style="fill-rule:evenodd;clip-rule:evenodd;fill:#FFFFFF;" d="M15,55.998c-0.553,0-1,0.447-1,1c0,0.552,0.447,0.999,1,0.999
			c0.552,0,1-0.447,1-0.999C16,56.445,15.552,55.998,15,55.998z M19,55.998c-0.553,0-1,0.447-1,1c0,0.552,0.447,0.999,1,0.999
			c0.552,0,1-0.447,1-0.999C20,56.445,19.552,55.998,19,55.998z"/>
	</g>
</g>
<g id="Headstock_1_">
	<g>
		<polygon style="fill-rule:evenodd;clip-rule:evenodd;fill:#E8AD72;" points="62,2 62,1.998 61.998,1.998 60,0 58,0 52,6 
			52.999,6.999 24,35.998 28,39.998 56.999,10.999 58,12 64,6 64,4 		"/>
	</g>
</g>
<g id="Head_9_">
	<g>
		<polygon style="fill-rule:evenodd;clip-rule:evenodd;fill:#666666;" points="62,2 60,0 58,0 52,6 52,8 54,9.999 56,12 58,12 64,6 
			64,4 		"/>
	</g>
</g>
<g>
</g>
<g>
</g>
<g>
</g>
<g>
</g>
<g>
</g>
<g>
</g>
<g>
</g>
<g>
</g>
<g>
</g>
<g>
</g>
<g>
</g>
<g>
</g>
<g>
</g>
<g>
</g>
<g>
</g>
</svg>
