<?xml version="1.0" encoding="iso-8859-1"?>
<!-- Generator: Adobe Illustrator 16.0.0, SVG Export Plug-In . SVG Version: 6.00 Build 0)  -->
<!DOCTYPE svg PUBLIC "-//W3C//DTD SVG 1.1//EN" "http://www.w3.org/Graphics/SVG/1.1/DTD/svg11.dtd">
<svg version="1.1" id="Layer_1" xmlns="http://www.w3.org/2000/svg" xmlns:xlink="http://www.w3.org/1999/xlink" x="0px" y="0px"
	 width="56px" height="64px" viewBox="0 0 56 64" style="enable-background:new 0 0 56 64;" xml:space="preserve">
<g id="Bin">
	<g>
		<path style="fill:#CCCCCC;" d="M4,16v44.001C4,62.209,5.791,64,8,64h40c2.209,0,4-1.791,4-3.999V16H4z"/>
	</g>
</g>
<g id="Lines">
	<g>
		<path style="fill-rule:evenodd;clip-rule:evenodd;fill:#999999;" d="M16,24c-1.104,0-2,0.896-2,1.999V54c0,1.104,0.896,2,2,2
			s2-0.896,2-2V25.999C18,24.896,17.104,24,16,24z M28,24c-1.104,0-2,0.896-2,1.999V54c0,1.104,0.896,2,2,2s2-0.896,2-2V25.999
			C30,24.896,29.104,24,28,24z M40,24c-1.105,0-2,0.896-2,1.999V54c0,1.104,0.895,2,2,2c1.104,0,2-0.896,2-2V25.999
			C42,24.896,41.104,24,40,24z"/>
	</g>
</g>
<g id="Shadow">
	<g>
		<rect x="4" y="18.001" style="fill:#999999;" width="48" height="3.999"/>
	</g>
</g>
<g id="Cap">
	<g>
		<path style="fill:#CCCCCC;" d="M52,8H4c-2.21,0-4,1.791-4,4.001v6h56v-6C56,9.791,54.209,8,52,8z"/>
	</g>
</g>
<g id="Handle_2_">
	<g>
		<path style="fill:#CCCCCC;" d="M36,0H20c-2.209,0-4,1.791-4,4v4h4V6c0-1.104,0.895-2,2-2h12c1.104,0,2,0.896,2,2v2h4V4
			C40,1.791,38.209,0,36,0z"/>
	</g>
</g>
<g>
</g>
<g>
</g>
<g>
</g>
<g>
</g>
<g>
</g>
<g>
</g>
<g>
</g>
<g>
</g>
<g>
</g>
<g>
</g>
<g>
</g>
<g>
</g>
<g>
</g>
<g>
</g>
<g>
</g>
</svg>
