<?xml version="1.0" encoding="iso-8859-1"?>
<!-- Generator: Adobe Illustrator 16.0.0, SVG Export Plug-In . SVG Version: 6.00 Build 0)  -->
<!DOCTYPE svg PUBLIC "-//W3C//DTD SVG 1.1//EN" "http://www.w3.org/Graphics/SVG/1.1/DTD/svg11.dtd">
<svg version="1.1" id="Layer_1" xmlns="http://www.w3.org/2000/svg" xmlns:xlink="http://www.w3.org/1999/xlink" x="0px" y="0px"
	 width="64px" height="63.998px" viewBox="0 0 64 63.998" style="enable-background:new 0 0 64 63.998;" xml:space="preserve">
<g id="Base_18_">
	<g>
		<path style="fill:#FFCC66;" d="M60,0H4C1.791,0,0,1.791,0,4v55.999c0,2.209,1.791,3.999,4,3.999h56c2.209,0,4-1.79,4-3.999V4
			C64,1.791,62.209,0,60,0z"/>
	</g>
</g>
<g id="Dots_11_">
	<g>
		<path style="fill-rule:evenodd;clip-rule:evenodd;fill:#B38F47;" d="M8.001,3.988c-2.209,0-4,1.792-4,4
			c0,2.21,1.791,4.001,4,4.001s4-1.791,4-4.001C12.001,5.78,10.21,3.988,8.001,3.988z M56.001,11.989c2.209,0,4-1.791,4-4.001
			c0-2.208-1.791-4-4-4s-4,1.792-4,4C52.001,10.198,53.792,11.989,56.001,11.989z M8.001,51.989c-2.209,0-4,1.79-4,3.999
			c0,2.21,1.791,4,4,4s4-1.79,4-4C12.001,53.779,10.21,51.989,8.001,51.989z M56.001,51.989c-2.209,0-4,1.79-4,3.999
			c0,2.21,1.791,4,4,4s4-1.79,4-4C60.001,53.779,58.21,51.989,56.001,51.989z"/>
	</g>
</g>
<g id="Question">
	<g>
		<path style="fill-rule:evenodd;clip-rule:evenodd;fill:#ED7161;" d="M32,7.997c-8.837,0-16,7.163-16,16
			c0,2.208,1.79,3.999,4,3.999c2.209,0,4-1.791,4-3.999c0-4.419,3.581-8.001,8-8.001c4.418,0,8,3.582,8,8.001c0,8.294-12,5.75-12,20
			h8c0-7.625,12-6.663,12-20C48,15.16,40.837,7.997,32,7.997z M32,47.996c-2.209,0-4,1.79-4,4.001c0,2.208,1.791,3.999,4,3.999
			s4-1.791,4-3.999C36,49.786,34.209,47.996,32,47.996z"/>
	</g>
</g>
<g>
</g>
<g>
</g>
<g>
</g>
<g>
</g>
<g>
</g>
<g>
</g>
<g>
</g>
<g>
</g>
<g>
</g>
<g>
</g>
<g>
</g>
<g>
</g>
<g>
</g>
<g>
</g>
<g>
</g>
</svg>
