<?xml version="1.0" encoding="iso-8859-1"?>
<!-- Generator: Adobe Illustrator 16.0.0, SVG Export Plug-In . SVG Version: 6.00 Build 0)  -->
<!DOCTYPE svg PUBLIC "-//W3C//DTD SVG 1.1//EN" "http://www.w3.org/Graphics/SVG/1.1/DTD/svg11.dtd">
<svg version="1.1" id="Layer_1" xmlns="http://www.w3.org/2000/svg" xmlns:xlink="http://www.w3.org/1999/xlink" x="0px" y="0px"
	 width="64px" height="64px" viewBox="0 0 64 64" style="enable-background:new 0 0 64 64;" xml:space="preserve">
<g id="Ball_1_">
	<g>
		<circle style="fill:#E6E6E6;" cx="32" cy="32" r="32"/>
	</g>
</g>
<g id="Polygons">
	<g>
		<path style="fill-rule:evenodd;clip-rule:evenodd;fill:#666666;" d="M32,20c-2,0-12,8-12,10s4,14,6,14s10,0,12,0s6-12,6-14
			S34,20,32,20z M4.292,48C7.842,54.135,13.366,58.979,20,61.665c-0.004-2.421-0.094-9.76-2-11.665
			C16.079,48.078,6.793,48.003,4.292,48z M44,61.665c6.633-2.687,12.158-7.53,15.708-13.665C57.207,48.003,47.921,48.078,46,50
			C44.095,51.905,44.005,59.244,44,61.665z M10,24c0-1.761-1.551-9.722-3.287-11.6C2.509,17.816,0,24.613,0,32C2,32,10,26,10,24z
			 M32,8c1.352,0,7.081-4.205,9.204-6.65C38.288,0.476,35.2,0,32,0s-6.288,0.476-9.204,1.35C24.919,3.795,30.648,8,32,8z M64,32
			c0-7.387-2.509-14.184-6.713-19.6C55.551,14.278,54,22.239,54,24C54,26,62,32,64,32z"/>
	</g>
</g>
<g>
</g>
<g>
</g>
<g>
</g>
<g>
</g>
<g>
</g>
<g>
</g>
<g>
</g>
<g>
</g>
<g>
</g>
<g>
</g>
<g>
</g>
<g>
</g>
<g>
</g>
<g>
</g>
<g>
</g>
</svg>
